<?xml version="1.0" encoding="utf-8"?>
<!-- Generator: Adobe Illustrator 21.1.0, SVG Export Plug-In . SVG Version: 6.00 Build 0)  -->
<svg version="1.1" xmlns="http://www.w3.org/2000/svg" xmlns:xlink="http://www.w3.org/1999/xlink" x="0px" y="0px"
	 viewBox="0 0 804.8 296" style="enable-background:new 0 0 804.8 296;" xml:space="preserve">
<style type="text/css">
	.st0{fill:#FFFFFF;}
</style>
<g id="Layer_1">
</g>
<g id="Layer_2">
	<polygon class="st0" points="66.4,293 0,280.8 66.4,277.1 66.4,242.2 139.4,236.8 139.4,230.3 139.4,223.8 149.5,218.9
		149.5,208.2 160.4,206.5 160.4,177 160.4,94.2 160.4,89.1 160.4,82 160.4,71.1 149.5,66.7 200.3,61.9 200.3,51.3 200.3,19.2
		194.8,14.7 201.1,11.6 201.1,6 603.7,6 603.7,11.8 611.5,14.7 603.7,19.2 603.7,51.3 603.7,61.9 655.7,66.7 645.2,71.1 645.2,82
		645.2,85.4 650.5,92.8 645.2,92.8 645.2,206.5 655.7,208.2 655.7,218.9 666.8,223.8 666.8,236.8 740.6,242.2 740.6,277.1
		804.8,280.8 	"/>
	<g>
		<rect x="201.1" width="402.7" height="6"/>
		<rect x="194.8" y="8.4" width="416.7" height="6.3"/>
		<rect x="200.3" y="19.2" width="403.4" height="32.1"/>
		<rect x="149.5" y="57.1" width="506.2" height="9.5"/>
		<rect x="160.4" y="71.1" width="484.8" height="10.9"/>
		<rect x="155.2" y="85.4" width="495.3" height="7.4"/>
		<rect x="160.4" y="94.2" width="18.1" height="112.3"/>
		<rect x="198" y="94.2" width="18.1" height="112.3"/>
		<rect x="240.8" y="94.2" width="18.1" height="112.3"/>
		<rect x="283.5" y="94.2" width="18.1" height="112.3"/>
		<rect x="326.3" y="94.2" width="18.1" height="112.3"/>
		<rect x="370.2" y="94.2" width="18.1" height="112.3"/>
		<rect x="416.8" y="94.2" width="18.1" height="112.3"/>
		<rect x="460.9" y="94.2" width="18.1" height="112.3"/>
		<rect x="504.5" y="94.2" width="18.1" height="112.3"/>
		<rect x="546.5" y="94.2" width="18.1" height="112.3"/>
		<rect x="589.4" y="94.2" width="18.1" height="112.3"/>
		<rect x="627" y="94.2" width="18.1" height="112.3"/>
		<rect x="149.5" y="208.2" width="506.2" height="10.7"/>
		<rect x="139.4" y="223.8" width="527.4" height="13"/>
		<rect x="66.4" y="242.2" width="674.2" height="34.9"/>
		<rect y="280.8" width="804.8" height="15.2"/>
	</g>
</g>
</svg>
