<?xml version="1.0" encoding="utf-8"?>
<!-- Generator: Adobe Illustrator 21.1.0, SVG Export Plug-In . SVG Version: 6.00 Build 0)  -->
<svg version="1.1" id="Слой_2" xmlns="http://www.w3.org/2000/svg" xmlns:xlink="http://www.w3.org/1999/xlink" x="0px" y="0px"
	 viewBox="0 0 1567.5 801.1" style="enable-background:new 0 0 1567.5 801.1;" xml:space="preserve">
<style type="text/css">
	.st0{fill:#3A3A3A;}
	.st1{fill:#FFFFFF;}
</style>
<polygon class="st0" points="1561.7,794.1 3.7,794.1 3.7,327.1 494.6,327.1 503.5,308.6 782.7,196.4 1061.7,306.9 1064.2,326.9
	1561.7,327.1 "/>
<path class="st1" d="M709.8,764.8h141.4V378.4H709.8V764.8z M759.5,463.6H802v83.7h-42.5V463.6z M748.4,653.8L748.4,653.8
	c0-0.1,0-0.1,0-0.3c0-14,14.4-25.3,32.5-25.3c17.9,0,32.5,11.4,32.5,25.3c0,0.1,0,0.1,0,0.3l0,0v107.3h-64.8L748.4,653.8
	L748.4,653.8z"/>
<path class="st1" d="M880.3,764.8h144.3V378.4H880.3V764.8z M951.6,711.9h-42.7v-83.7h42.7V711.9L951.6,711.9z M909.1,463.6h42.5
	v83.7h-42.7v-83.7H909.1z M927.4,581.3c28.6-0.1,42.5,21.7,42.5,21.7H885C884.8,603.1,897.7,581.4,927.4,581.3z"/>
<g>
	<path class="st1" d="M4.5,796.6V326.3h405V262h29.4v64.3h45.3V274h87.3l209.7-88l210.2,88h84.4v52.3h59.2V262h29.3v64.3H1563v470.3
		H4.5z M501,794.2h574.4l0.1-31.9h-19.1V380.9h4.9v-48.3H501v48.3h6.8v381.4H501V794.2z M1459.8,714.4h47.5v-88.7h-47.5V714.4z
		 M1340.2,714.4h47.5v-88.7h-47.5V714.4z M1211.5,714.4h47.5v-88.7h-47.5V714.4z M1090.4,714.4h47.5v-88.7h-47.5V714.4z
		 M429.3,714.4H477v-88.7h-47.7V714.4z M308.2,714.4h47.7v-88.7h-47.7V714.4z M179.5,714.4h47.7v-88.7h-47.7V714.4z M60.1,714.4
		h47.5v-2.5c0-22.4,0-81.1,0.2-83.5l-2.5,2.3v-5H60.1V714.4z M1484.6,581.9c-29.4,0-43.6,21.9-44.2,22.9l-2.4,3.8h93.9l-2.2-3.8
		c-0.6-0.9-13.9-22.8-44.6-22.9L1484.6,581.9z M82.4,581.9c-30.9,0.1-44.1,22-44.6,22.9l-2.2,3.8h93.9l-2.5-3.8
		c-0.6-0.9-14.9-22.9-44.4-22.9L82.4,581.9z M1310.4,605.6h107.1l-53.5-25.6L1310.4,605.6z M1237.9,578.9
		c-29.4,0-43.6,21.9-44.2,22.9l-2.4,3.8h93.9l-2.2-3.8c-0.6-0.9-13.9-22.8-44.6-22.9L1237.9,578.9z M1065.2,605.6h107.1l-53.5-25.6
		L1065.2,605.6z M395.3,605.6h107.1L448.8,580L395.3,605.6z M329.1,578.9c-30.9,0.1-44.1,22-44.6,22.9l-2.2,3.8h93.9l-2.5-3.8
		c-0.6-0.9-14.9-22.9-44.4-22.9L329.1,578.9z M150,605.6H257L203.5,580L150,605.6z M1459.8,549.9h47.5v-88.7h-47.5V549.9z
		 M1340.1,549.9h47.5v-88.7h-47.5V549.9z M1211.5,549.9h47.5v-88.7h-47.5V549.9z M1090.2,549.9h47.5v-88.7h-47.5V549.9z
		 M429.5,549.9h47.7v-88.7h-47.7V549.9z M308.4,549.9h47.7v-88.7h-47.7V549.9z M179.7,549.9h47.7v-88.7h-47.7V549.9z M60.1,549.9
		h47.7v-88.7H60.1V549.9z M1070.4,401.9h491.5V376h-491.5V401.9z M5.5,401.9H497V376H5.5V401.9z M1501.9,360.8h10.2v-29.9h-10.2
		V360.8z M1490,360.8h10.2v-29.9H1490V360.8z M1477.9,360.8h10.2v-29.9h-10.2V360.8z M1466,360.8h10.2v-29.9H1466V360.8z
		 M1454.1,360.8h10.2v-29.9h-10.2V360.8z M1442.2,360.8h10.2v-29.9h-10.2V360.8z M1430.1,360.8h10.2v-29.9h-10.2V360.8z
		 M1382.3,360.8h10.2v-29.9h-10.2V360.8z M1370.3,360.8h10.2v-29.9h-10.2V360.8z M1358.3,360.8h10.2v-29.9h-10.2V360.8z
		 M1346.4,360.8h10.2v-29.9h-10.2V360.8z M1334.4,360.8h10.2v-29.9h-10.2V360.8z M1322.4,360.8h10.2v-29.9h-10.2V360.8z
		 M1310.5,360.8h10.2v-29.9h-10.2V360.8z M1262.6,360.8h10.2v-29.9h-10.2V360.8z M1250.7,360.8h10.2v-29.9h-10.2V360.8z
		 M1238.6,360.8h10.2v-29.9h-10.2V360.8z M1226.7,360.8h10.2v-29.9h-10.2V360.8z M1214.8,360.8h10.2v-29.9h-10.2V360.8z
		 M1202.7,360.8h10.2v-29.9h-10.2V360.8z M1190.8,360.8h10.2v-29.9h-10.2V360.8z M1143,360.8h10.2v-29.9H1143V360.8z M1131,360.8
		h10.2v-29.9H1131V360.8z M1119,360.8h10.2v-29.9H1119V360.8z M1107.1,360.8h10.2v-29.9h-10.2V360.8z M1095.1,360.8h10.2v-29.9
		h-10.2V360.8z M1083.1,360.8h10.2v-29.9h-10.2V360.8z M1071.2,360.8h10.2v-29.9h-10.2V360.8z M484.8,357.7H495v-29.9h-10.2V357.7z
		 M472.9,357.7h10.2v-29.9h-10.2V357.7z M461,357.7h10.2v-29.9H461V357.7z M448.9,357.7h10.2v-29.9h-10.2V357.7z M437,357.7h10.2
		v-29.9H437V357.7z M425.1,357.7h10.2v-29.9h-10.2V357.7z M413,357.7h10.2v-29.9H413V357.7z M365.2,357.7h10.2v-29.9h-10.2V357.7z
		 M353.3,357.7h10.2v-29.9h-10.2V357.7z M341.3,357.7h10.2v-29.9h-10.2V357.7z M329.3,357.7h10.2v-29.9h-10.2V357.7z M317.4,357.7
		h10.2v-29.9h-10.2V357.7z M305.4,357.7h10.2v-29.9h-10.2V357.7z M293.4,357.7h10.2v-29.9h-10.2V357.7z M245.6,357.7h10.2v-29.9
		h-10.2V357.7z M233.6,357.7h10.2v-29.9h-10.2V357.7z M221.7,357.7h10.2v-29.9h-10.2V357.7z M209.6,357.7h10.2v-29.9h-10.2V357.7z
		 M197.7,357.7h10.2v-29.9h-10.2V357.7z M185.8,357.7H196v-29.9h-10.2V357.7z M173.7,357.7h10.2v-29.9h-10.2V357.7z M125.9,357.7
		h10.2v-29.9h-10.2V357.7z M114,357.7h10.2v-29.9H114V357.7z M101.9,357.7h10.2v-29.9h-10.2V357.7z M90,357.7h10.2v-29.9H90V357.7z
		 M78.1,357.7h10.2v-29.9H78.1V357.7z M66.1,357.7h10.2v-29.9H66.1V357.7z M54.1,357.7h10.2v-29.9H54.1V357.7z M495.2,314.8h571.2
		L780.8,201.3L495.2,314.8z M734.8,69.8c1.8,0.1,4.1,0.1,6.3,0.1c2.7,0,4.6-0.1,5.7-0.3c4.2-0.5,13.3-6.6,23.3-18.8
		c3.8-4.7,7.1-12.3,9.8-22.8v34.7l-2.1,2.4c-1.5,1.7-4.4,5-5.7,9.7c-1.7,6.1-7.6,19.6-11.4,23.9c-2.6,2.9-9.6,7.1-14.1,9.7
		L734.8,69.8z"/>
	<path class="st0" d="M777.3,43.4v18.5l-1.3,1.4l-0.2,0.3c-1.7,1.9-4.8,5.4-6.2,10.7c-1.6,5.8-7.3,18.8-10.8,22.9
		c-1.9,2-6.5,5.1-10.8,7.6l-9.8-32.4c1,0,1.9,0,2.9,0c3.7,0,5.2-0.2,6-0.3c5.9-0.8,15.9-8.7,24.9-19.7
		C773.9,50.1,775.7,47.1,777.3,43.4 M781.2,188.7L990,276.1l0.9,0.4h1h81.4v38.3l-18.1-7.2L782.6,199.4l-1.8-0.7l-1.8,0.7
		L506.5,307.7l-19.8,7.9v-39H571h1l0.9-0.4L781.2,188.7 M1161.8,264.5v59.3v5h5h21.5v4.6v24.9v5h5h5.2h1.7h5h5.2h1.9h5h5.2h1.7h5
		h5.2h1.7h5h5.2h1.9h5h5.2h1.7h5h5.2h5v-5v-24.9v-4.6h32.7v4.6v24.9v5h5h5.2h1.7h5h5.2h1.8h5h5.2h1.8h5h5.2h1.7h5h5.2h1.8h5h5.2h1.8
		h5h5.2h5v-5v-24.9v-4.6h32.6v4.6v24.9v5h5h5.2h1.9h5h5.2h1.7h5h5.2h1.7h5h5.2h1.7h5h5.2h1.9h5h5.2h1.7h5h5.2h5v-5v-24.9v-4.6h45.9
		v44.7h-1.1h-486.5h-5v5v20.9v5h5h486.5h1.1v389.7h-482.6l0-2.4l0.1-26.9l0-5h-5h-14.1V608.1h17.3h85h22.1l-19.9-9.5l-42.5-20.3
		l-2.2-1l-2.2,1l-42.5,20.3l-15.1,7.2V383.4h4.9v-5v-43.3v-5h-5H503.5h-5v5v38.4h-4H8H7v-44.7h44.6v1.5v24.9v5h5h5.2h1.8h5h5.2h1.8
		h5h5.2h1.7h5h5.2h1.7h5h5.2h1.9h5h5.2h1.7h5h5.2h5v-5v-24.9v-1.5h32.6v1.5v24.9v5h5h5.2h1.9h5h5.2h1.7h5h5.2h1.7h5h5.2h1.9h5h5.2
		h1.7h5h5.2h1.8h5h5.2h5v-5v-24.9v-1.5h32.6v1.5v24.9v5h5h5.2h1.8h5h5.2h1.8h5h5.2h1.7h5h5.2h1.8h5h5.2h1.8h5h5.2h1.7h5h5.2h5v-5
		v-24.9v-1.5H407h3.5v1.5v24.9v5h5h5.2h1.9h5h5.2h1.7h5h5.2h1.7h5h5.2h1.9h5h5.2h1.7h5h5.2h1.7h5h5.2h5v-5v-24.9v-5h-5h-5.2h-0.6
		v-1.5v-6.5h21.6h545.1h19.9v6.5v4.6h-4.6v5v24.9v5h5h5.2h1.7h5h5.2h1.8h5h5.2h1.8h5h5.2h1.7h5h5.2h1.8h5h5.2h1.8h5h5.2h5v-5v-24.9
		v-5h-5h-5.2h-1.8h-5h-1.2v-4.6v-59.3H1161.8 M1457.3,552.4h5h42.5h5v-5v-83.7v-5h-5h-42.5h-5v5v83.7V552.4 M1337.6,552.4h5h42.5h5
		v-5v-83.7v-5h-5h-42.5h-5v5v83.7V552.4 M1209,552.4h5h42.5h5v-5v-83.7v-5h-5H1214h-5v5v83.7V552.4 M1087.7,552.4h5h42.5h5v-5v-83.7
		v-5h-5h-42.5h-5v5v83.7V552.4 M1186.7,608.1h9.1h85h8.8l-4.5-7.5c-0.6-1-14.6-24-46.8-24.2l-0.4,0c-30.7,0-45.7,23-46.3,24
		L1186.7,608.1 M1299.3,608.1h22.1h85h22.1l-19.9-9.5l-42.5-20.3l-2.2-1l-2.2,1l-42.5,20.3L1299.3,608.1 M1433.4,611.1h9.1h85h8.8
		l-4.5-7.5c-0.6-1-14.6-24-46.8-24.2l-0.4,0c-30.7,0-45.7,23-46.3,24L1433.4,611.1 M1457.3,716.9h5h42.5h5v-5v-83.7v-5h-5h-42.5h-5
		v5v83.7V716.9 M1337.7,716.9h5h42.5h5v-5v-83.7v-5h-5h-42.5h-5v5v83.7V716.9 M1209,716.9h5h42.5h5v-5v-83.7v-5h-5H1214h-5v5v83.7
		V716.9 M1087.9,716.9h5h42.5h5v-5v-83.7v-5h-5h-42.5h-5v5v83.7V716.9 M436.4,264.5v59.3v1.5h-3.6h-5.2h-1.9h-5h-5.2H412v-1.5v-59.3
		H436.4 M505.3,383.4v220.8l-11.8-5.7L451,578.3l-2.2-1l-2.2,1l-42.5,20.3l-19.9,9.5h22.1h85h14v151.7h-1.8h-5v5v26.9v2.4H7V404.4h1
		h486.5h5v-5v-16h4H505.3 M427,552.4h5h42.7h5v-5v-83.7v-5h-5H432h-5v5v83.7V552.4 M305.9,552.4h5h42.7h5v-5v-83.7v-5h-5h-42.7h-5v5
		v83.7V552.4 M177.2,552.4h5h42.7h5v-5v-83.7v-5h-5h-42.7h-5v5v83.7V552.4 M57.6,552.4h5h42.7h5v-5v-83.7v-5h-5H62.6h-5v5v83.7
		V552.4 M277.9,608.1h8.7h85h9.1l-4.9-7.7c-0.6-1-15.7-24-46.5-24l-0.2,0c-32.3,0.1-46.2,23.2-46.8,24.2L277.9,608.1 M138.9,608.1
		H161h85h22.1l-19.9-9.5l-42.5-20.3l-2.2-1l-2.2,1l-42.5,20.3L138.9,608.1 M31.2,611.1h8.7h85h9.1l-4.9-7.7c-0.6-1-15.7-24-46.5-24
		l-0.2,0c-32.3,0.1-46.2,23.2-46.8,24.2L31.2,611.1 M426.8,716.9h5h42.7h5v-5v-83.7v-5h-5h-42.7h-5v5v83.7V716.9 M305.7,716.9h5
		h42.7h5v-5v-83.7v-5h-5h-42.7h-5v5v83.7V716.9 M177,716.9h5h42.7h5v-5v-83.7v-5h-5H182h-5v5v83.7V716.9 M57.6,716.9h5h42.5h5v-5
		c0-32.1,0-80.7,0.2-83.3c-0.1,2.2-2,4.6-5,4.6v-10H62.6h-5v5v83.7V716.9 M782.3,2H780v13.2c-1.7,9.5-5.3,26-11.9,34.1
		c-9.7,11.9-18.4,17.5-21.7,17.9c-1.1,0.2-3.1,0.2-5.3,0.2c-4.4,0-9.7-0.2-9.7-0.2l13.6,45c0,0,13.2-7,17.5-11.7
		c4.2-4.8,10.2-18.7,11.9-24.9c1.2-4.4,4-7.4,5.4-9v117.3L571,271.5h-89.3v52.3h-40.3v-64.3H407v64.3H2v475.3h1563.5V323.8h-398.7
		v-64.3h-34.3v64.3h-54.2v-52.3h-86.4l-209.6-87.7V2L782.3,2z M508.3,312.3L780.8,204l272.6,108.3H508.3L508.3,312.3z M487.3,355.2
		v-24.9h5.2v24.9H487.3L487.3,355.2z M475.4,355.2v-24.9h5.2v24.9H475.4L475.4,355.2z M463.5,355.2v-24.9h5.2v24.9H463.5
		L463.5,355.2z M451.4,355.2v-24.9h5.2v24.9H451.4L451.4,355.2z M439.5,355.2v-24.9h5.2v24.9H439.5L439.5,355.2z M427.6,355.2v-24.9
		h5.2v24.9H427.6L427.6,355.2z M415.5,355.2v-24.9h5.2v24.9H415.5L415.5,355.2z M367.7,355.2v-24.9h5.2v24.9H367.7L367.7,355.2z
		 M355.8,355.2v-24.9h5.2v24.9H355.8L355.8,355.2z M343.8,355.2v-24.9h5.2v24.9H343.8L343.8,355.2z M331.8,355.2v-24.9h5.2v24.9
		H331.8L331.8,355.2z M319.9,355.2v-24.9h5.2v24.9H319.9L319.9,355.2z M307.9,355.2v-24.9h5.2v24.9H307.9L307.9,355.2z M295.9,355.2
		v-24.9h5.2v24.9H295.9L295.9,355.2z M248.1,355.2v-24.9h5.2v24.9H248.1L248.1,355.2z M236.1,355.2v-24.9h5.2v24.9H236.1
		L236.1,355.2z M224.2,355.2v-24.9h5.2v24.9H224.2L224.2,355.2z M212.1,355.2v-24.9h5.2v24.9H212.1L212.1,355.2z M200.2,355.2v-24.9
		h5.2v24.9H200.2L200.2,355.2z M188.3,355.2v-24.9h5.2v24.9H188.3L188.3,355.2z M176.2,355.2v-24.9h5.2v24.9H176.2L176.2,355.2z
		 M128.4,355.2v-24.9h5.2v24.9H128.4L128.4,355.2z M116.5,355.2v-24.9h5.2v24.9H116.5L116.5,355.2z M104.4,355.2v-24.9h5.2v24.9
		H104.4L104.4,355.2z M92.5,355.2v-24.9h5.2v24.9H92.5L92.5,355.2z M80.6,355.2v-24.9h5.2v24.9H80.6L80.6,355.2z M68.6,355.2v-24.9
		h5.2v24.9H68.6L68.6,355.2z M56.6,355.2v-24.9h5.2v24.9H56.6L56.6,355.2z M1504.4,358.3v-24.9h5.2v24.9H1504.4L1504.4,358.3z
		 M1492.5,358.3v-24.9h5.2v24.9H1492.5L1492.5,358.3z M1480.4,358.3v-24.9h5.2v24.9H1480.4L1480.4,358.3z M1468.5,358.3v-24.9h5.2
		v24.9H1468.5L1468.5,358.3z M1456.6,358.3v-24.9h5.2v24.9H1456.6L1456.6,358.3z M1444.7,358.3v-24.9h5.2v24.9H1444.7L1444.7,358.3z
		 M1432.6,358.3v-24.9h5.2v24.9H1432.6L1432.6,358.3z M1384.8,358.3v-24.9h5.2v24.9H1384.8L1384.8,358.3z M1372.8,358.3v-24.9h5.2
		v24.9H1372.8L1372.8,358.3z M1360.8,358.3v-24.9h5.2v24.9H1360.8L1360.8,358.3z M1348.9,358.3v-24.9h5.2v24.9H1348.9L1348.9,358.3z
		 M1336.9,358.3v-24.9h5.2v24.9H1336.9L1336.9,358.3z M1324.9,358.3v-24.9h5.2v24.9H1324.9L1324.9,358.3z M1313,358.3v-24.9h5.2
		v24.9H1313L1313,358.3z M1265.1,358.3v-24.9h5.2v24.9H1265.1L1265.1,358.3z M1253.2,358.3v-24.9h5.2v24.9H1253.2L1253.2,358.3z
		 M1241.1,358.3v-24.9h5.2v24.9H1241.1L1241.1,358.3z M1229.2,358.3v-24.9h5.2v24.9H1229.2L1229.2,358.3z M1217.3,358.3v-24.9h5.2
		v24.9H1217.3L1217.3,358.3z M1205.2,358.3v-24.9h5.2v24.9H1205.2L1205.2,358.3z M1193.3,358.3v-24.9h5.2v24.9H1193.3L1193.3,358.3z
		 M1145.5,358.3v-24.9h5.2v24.9H1145.5L1145.5,358.3z M1133.5,358.3v-24.9h5.2v24.9H1133.5L1133.5,358.3z M1121.5,358.3v-24.9h5.2
		v24.9H1121.5L1121.5,358.3z M1109.6,358.3v-24.9h5.2v24.9H1109.6L1109.6,358.3z M1097.6,358.3v-24.9h5.2v24.9H1097.6L1097.6,358.3z
		 M1085.6,358.3v-24.9h5.2v24.9H1085.6L1085.6,358.3z M1073.7,358.3v-24.9h5.2v24.9H1073.7L1073.7,358.3z M503.5,378.4v-43.3h555.3
		v43.3h-4.9v386.4h19.1l-0.1,26.9H503.5v-26.9h6.8V378.4H503.5L503.5,378.4z M1072.9,399.4v-20.9h486.5v20.9H1072.9L1072.9,399.4z
		 M8,399.4v-20.9h486.5v20.9H8L8,399.4z M1462.3,547.4v-83.7h42.5v83.7H1462.3L1462.3,547.4z M1342.6,547.4v-83.7h42.5v83.7H1342.6
		L1342.6,547.4z M1214,547.4v-83.7h42.5v83.7H1214L1214,547.4z M1092.7,547.4v-83.7h42.5v83.7H1092.7L1092.7,547.4z M432,547.4
		v-83.7h42.7v83.7H432L432,547.4z M310.9,547.4v-83.7h42.7v83.7H310.9L310.9,547.4z M182.2,547.4v-83.7h42.7v83.7H182.2L182.2,547.4
		z M62.6,547.4v-83.7h42.7v83.7H62.6L62.6,547.4z M1195.8,603.1c0,0,13.8-21.7,42.1-21.7c0.1,0,0.3,0,0.4,0
		c29.7,0.1,42.5,21.7,42.5,21.7H1195.8L1195.8,603.1z M286.6,603.1c0,0,12.7-21.6,42.5-21.7c0.1,0,0.1,0,0.2,0
		c28.5,0,42.3,21.7,42.3,21.7H286.6L286.6,603.1z M1321.4,603.1l42.5-20.3l42.5,20.3H1321.4L1321.4,603.1z M1076.2,603.1l42.5-20.3
		l42.5,20.3H1076.2L1076.2,603.1z M406.3,603.1l42.5-20.3l42.5,20.3H406.3L406.3,603.1z M161,603.1l42.5-20.3l42.5,20.3H161
		L161,603.1z M1442.5,606.1c0,0,13.8-21.7,42.1-21.7c0.1,0,0.3,0,0.4,0c29.7,0.1,42.5,21.7,42.5,21.7H1442.5L1442.5,606.1z
		 M39.9,606.1c0,0,12.7-21.6,42.5-21.7c0.1,0,0.1,0,0.2,0c28.5,0,42.3,21.7,42.3,21.7H39.9L39.9,606.1z M1462.3,711.9v-83.7h42.5
		v83.7H1462.3L1462.3,711.9z M1342.7,711.9v-83.7h42.5v83.7H1342.7L1342.7,711.9z M1214,711.9v-83.7h42.5v83.7H1214L1214,711.9z
		 M1092.9,711.9v-83.7h42.5v83.7H1092.9L1092.9,711.9z M431.8,711.9v-83.7h42.7v83.7H431.8L431.8,711.9z M310.7,711.9v-83.7h42.7
		v83.7H310.7L310.7,711.9z M182,711.9v-83.7h42.7v83.7H182L182,711.9z M62.6,711.9v-83.7h42.7c-0.2,0-0.2,83.7-0.2,83.7H62.6
		L62.6,711.9z"/>
</g>
<path class="st1" d="M539.3,764.8h141.4V378.4H539.3V764.8z M657.1,711.9h-42.7v-83.7h42.7V711.9z M614.4,463.6h42.7v83.7h-42.7
	V463.6z M634.2,584.3c28.6-0.1,42.5,21.7,42.5,21.7h-84.9C591.8,606.1,604.5,584.5,634.2,584.3z"/>
</svg>
