<?xml version="1.0" encoding="utf-8"?>
<!-- Generator: Adobe Illustrator 21.1.0, SVG Export Plug-In . SVG Version: 6.00 Build 0)  -->
<svg version="1.1" id="Слой_2" xmlns="http://www.w3.org/2000/svg" xmlns:xlink="http://www.w3.org/1999/xlink" x="0px" y="0px"
	 viewBox="0 0 1563.5 797.1" style="enable-background:new 0 0 1563.5 797.1;" xml:space="preserve">
<style type="text/css">
	.st0{fill:#FFFFFF;}
	.st1{stroke:#FFFFFF;stroke-miterlimit:10;}
</style>
<polygon class="st0" points="1559.7,792.1 1.7,792.1 1.7,325.1 492.6,325.1 501.5,306.6 780.7,194.4 1059.7,304.9 1062.2,324.9
	1559.7,325.1 "/>
<path class="st1" d="M707.8,762.8h141.4V376.4H707.8V762.8z M757.5,461.6H800v83.7h-42.5V461.6z M746.4,651.8L746.4,651.8
	c0-0.1,0-0.1,0-0.3c0-14,14.4-25.3,32.5-25.3c17.9,0,32.5,11.4,32.5,25.3c0,0.1,0,0.1,0,0.3l0,0v107.3h-64.8L746.4,651.8
	L746.4,651.8z"/>
<path class="st1" d="M878.3,762.8h144.3V376.4H878.3V762.8z M949.6,709.9h-42.7v-83.7h42.7V709.9L949.6,709.9z M907.1,461.6h42.5
	v83.7h-42.7v-83.7H907.1z M925.4,579.3c28.6-0.1,42.5,21.7,42.5,21.7H883C882.8,601.1,895.7,579.4,925.4,579.3z"/>
<path d="M1164.8,321.8v-64.3h-34.3v64.3h-54.2v-52.3h-86.4l-209.6-87.7V0H778v13.2c-1.7,9.5-5.3,26-11.9,34.1
	c-9.7,11.9-18.4,17.5-21.7,17.9c-3.2,0.5-15,0-15,0l13.6,45c0,0,13.2-7,17.5-11.7c4.2-4.8,10.2-18.7,11.9-24.9c1.2-4.4,4-7.4,5.4-9
	v117.3L569,269.5h-89.3v52.3h-40.3v-64.3H405v64.3H0v475.3h1563.5V321.8H1164.8z M1502.4,331.4h5.2v24.9h-5.2V331.4z M1490.5,331.4
	h5.2v24.9h-5.2V331.4z M1478.4,331.4h5.2v24.9h-5.2V331.4z M1466.5,331.4h5.2v24.9h-5.2V331.4z M1454.6,331.4h5.2v24.9h-5.2V331.4z
	 M1442.7,331.4h5.2v24.9h-5.2V331.4z M1430.6,331.4h5.2v24.9h-5.2V331.4z M1382.8,331.4h5.2v24.9h-5.2V331.4z M1370.8,331.4h5.2
	v24.9h-5.2V331.4z M1358.8,331.4h5.2v24.9h-5.2V331.4z M1346.9,331.4h5.2v24.9h-5.2V331.4z M1334.9,331.4h5.2v24.9h-5.2V331.4
	L1334.9,331.4z M1322.9,331.4h5.2v24.9h-5.2V331.4z M1311,331.4h5.2v24.9h-5.2V331.4z M1263.1,331.4h5.2v24.9h-5.2V331.4z
	 M1251.2,331.4h5.2v24.9h-5.2V331.4z M1239.1,331.4h5.2v24.9h-5.2V331.4z M1227.2,331.4h5.2v24.9h-5.2V331.4z M1215.3,331.4h5.2
	v24.9h-5.2V331.4z M1203.2,331.4h5.2v24.9h-5.2V331.4z M1191.3,331.4h5.2v24.9h-5.2V331.4z M1143.5,331.4h5.2v24.9h-5.2V331.4z
	 M1131.5,331.4h5.2v24.9h-5.2V331.4z M1119.5,331.4h5.2v24.9h-5.2V331.4z M1107.6,331.4h5.2v24.9h-5.2V331.4z M1095.6,331.4h5.2
	v24.9h-5.2V331.4z M1083.6,331.4h5.2v24.9h-5.2V331.4z M1071.7,331.4h5.2v24.9h-5.2V331.4z M778.8,202l272.6,108.3H506.3L778.8,202z
	 M485.3,328.3h5.2v24.9h-5.2V328.3z M473.4,328.3h5.2v24.9h-5.2V328.3z M461.5,328.3h5.2v24.9h-5.2V328.3z M449.4,328.3h5.2v24.9
	h-5.2V328.3z M437.5,328.3h5.2v24.9h-5.2V328.3z M425.6,328.3h5.2v24.9h-5.2V328.3z M413.5,328.3h5.2v24.9h-5.2V328.3z M365.7,328.3
	h5.2v24.9h-5.2V328.3z M353.8,328.3h5.2v24.9h-5.2V328.3z M341.8,328.3h5.2v24.9h-5.2V328.3z M329.8,328.3h5.2v24.9h-5.2V328.3z
	 M317.9,328.3h5.2v24.9h-5.2V328.3L317.9,328.3z M305.9,328.3h5.2v24.9h-5.2V328.3z M293.9,328.3h5.2v24.9h-5.2V328.3z M246.1,328.3
	h5.2v24.9h-5.2V328.3z M234.1,328.3h5.2v24.9h-5.2V328.3z M222.2,328.3h5.2v24.9h-5.2V328.3z M210.1,328.3h5.2v24.9h-5.2V328.3z
	 M198.2,328.3h5.2v24.9h-5.2V328.3z M186.3,328.3h5.2v24.9h-5.2V328.3z M174.2,328.3h5.2v24.9h-5.2V328.3z M126.4,328.3h5.2v24.9
	h-5.2V328.3z M114.5,328.3h5.2v24.9h-5.2V328.3z M102.4,328.3h5.2v24.9h-5.2V328.3z M90.5,328.3h5.2v24.9h-5.2V328.3z M78.6,328.3
	h5.2v24.9h-5.2V328.3z M66.6,328.3h5.2v24.9h-5.2V328.3z M54.6,328.3h5.2v24.9h-5.2V328.3z M103.1,709.9H60.6v-83.7h42.7
	C103.1,626.2,103.1,709.9,103.1,709.9z M37.9,604.1c0,0,12.7-21.6,42.5-21.7c28.6-0.1,42.5,21.7,42.5,21.7H37.9z M60.6,545.4v-83.7
	h42.7v83.7H60.6L60.6,545.4z M222.7,709.9H180v-83.7h42.7V709.9z M159,601.1l42.5-20.3l42.5,20.3H159z M180.2,545.4v-83.7h42.7v83.7
	H180.2L180.2,545.4z M351.4,709.9h-42.7v-83.7h42.7V709.9z M284.6,601.1c0,0,12.7-21.6,42.5-21.7c28.6-0.1,42.5,21.7,42.5,21.7
	H284.6z M308.9,545.4v-83.7h42.7v83.7H308.9L308.9,545.4z M472.5,709.9h-42.7v-83.7h42.7V709.9z M404.3,601.1l42.5-20.3l42.5,20.3
	H404.3z M430,545.4v-83.7h42.7v83.7H430L430,545.4z M492.5,397.4H6v-20.9h486.5V397.4z M1070.9,789.7H501.5v-26.9h6.8V376.4h-6.8
	v-43.3h555.3v43.3h-4.9v386.4h19.1L1070.9,789.7L1070.9,789.7z M1133.4,709.9h-42.5v-83.7h42.5V709.9z M1074.2,601.1l42.5-20.3
	l42.5,20.3H1074.2z M1090.7,545.4v-83.7h42.5v83.7H1090.7L1090.7,545.4z M1254.5,709.9H1212v-83.7h42.5V709.9z M1193.8,601.1
	c0,0,13.9-21.9,42.5-21.7c29.7,0.1,42.5,21.7,42.5,21.7H1193.8z M1212,545.4v-83.7h42.5v83.7H1212L1212,545.4z M1383.2,709.9h-42.5
	v-83.7h42.5V709.9z M1319.4,601.1l42.5-20.3l42.5,20.3H1319.4z M1340.6,545.4v-83.7h42.5v83.7H1340.6L1340.6,545.4z M1502.8,709.9
	h-42.5v-83.7h42.5V709.9z M1440.5,604.1c0,0,13.9-21.9,42.5-21.7c29.7,0.1,42.5,21.7,42.5,21.7H1440.5z M1460.3,545.4v-83.7h42.5
	v83.7H1460.3L1460.3,545.4z M1557.4,397.4h-486.5v-20.9h486.5V397.4z"/>
<path d="M537.3,762.8h141.4V376.4H537.3V762.8z M655.1,709.9h-42.7v-83.7h42.7V709.9z M612.4,461.6h42.7v83.7h-42.7V461.6z
	 M632.2,582.3c28.6-0.1,42.5,21.7,42.5,21.7h-84.9C589.8,604.1,602.5,582.5,632.2,582.3z"/>
</svg>
